<mxfile host="65bd71144e">
    <diagram name="Page-1" id="VCInqQ74QQs2gWPIW6Gt">
        <mxGraphModel dx="2208" dy="717" grid="1" gridSize="10" guides="1" tooltips="1" connect="1" arrows="1" fold="1" page="1" pageScale="1" pageWidth="850" pageHeight="1100" math="0" shadow="0">
            <root>
                <mxCell id="0"/>
                <mxCell id="1" parent="0"/>
                <mxCell id="v9uSFh_kvwWnCFCGm-_l-22" style="edgeStyle=orthogonalEdgeStyle;rounded=0;orthogonalLoop=1;jettySize=auto;html=1;exitX=0.5;exitY=1;exitDx=0;exitDy=0;entryX=0.5;entryY=0;entryDx=0;entryDy=0;" parent="1" source="v9uSFh_kvwWnCFCGm-_l-1" target="v9uSFh_kvwWnCFCGm-_l-4" edge="1">
                    <mxGeometry relative="1" as="geometry"/>
                </mxCell>
                <mxCell id="v9uSFh_kvwWnCFCGm-_l-1" value="Start" style="ellipse;whiteSpace=wrap;html=1;" parent="1" vertex="1">
                    <mxGeometry x="-60" y="140" width="120" height="80" as="geometry"/>
                </mxCell>
                <mxCell id="v9uSFh_kvwWnCFCGm-_l-55" style="edgeStyle=orthogonalEdgeStyle;rounded=0;orthogonalLoop=1;jettySize=auto;html=1;exitX=0.5;exitY=1;exitDx=0;exitDy=0;entryX=0.5;entryY=0;entryDx=0;entryDy=0;" parent="1" source="v9uSFh_kvwWnCFCGm-_l-2" target="v9uSFh_kvwWnCFCGm-_l-38" edge="1">
                    <mxGeometry relative="1" as="geometry"/>
                </mxCell>
                <mxCell id="v9uSFh_kvwWnCFCGm-_l-2" value="&lt;span style=&quot;font-size: 12px;&quot;&gt;เริ่มต้น&lt;/span&gt;" style="ellipse;whiteSpace=wrap;html=1;" parent="1" vertex="1">
                    <mxGeometry x="1120" y="170" width="120" height="80" as="geometry"/>
                </mxCell>
                <mxCell id="v9uSFh_kvwWnCFCGm-_l-86" style="edgeStyle=orthogonalEdgeStyle;rounded=0;orthogonalLoop=1;jettySize=auto;html=1;exitX=0.5;exitY=1;exitDx=0;exitDy=0;entryX=0.5;entryY=0;entryDx=0;entryDy=0;" parent="1" source="v9uSFh_kvwWnCFCGm-_l-3" target="v9uSFh_kvwWnCFCGm-_l-77" edge="1">
                    <mxGeometry relative="1" as="geometry"/>
                </mxCell>
                <mxCell id="v9uSFh_kvwWnCFCGm-_l-3" value="&lt;span style=&quot;font-size: 12px;&quot;&gt;เริ่มต้น&lt;/span&gt;" style="ellipse;whiteSpace=wrap;html=1;" parent="1" vertex="1">
                    <mxGeometry x="2390" y="170" width="120" height="80" as="geometry"/>
                </mxCell>
                <mxCell id="v9uSFh_kvwWnCFCGm-_l-23" style="edgeStyle=orthogonalEdgeStyle;rounded=0;orthogonalLoop=1;jettySize=auto;html=1;exitX=0.5;exitY=1;exitDx=0;exitDy=0;entryX=0.5;entryY=0;entryDx=0;entryDy=0;" parent="1" source="v9uSFh_kvwWnCFCGm-_l-4" edge="1">
                    <mxGeometry relative="1" as="geometry">
                        <mxPoint y="440" as="targetPoint"/>
                    </mxGeometry>
                </mxCell>
                <mxCell id="v9uSFh_kvwWnCFCGm-_l-4" value="รับค่า n" style="rounded=0;whiteSpace=wrap;html=1;" parent="1" vertex="1">
                    <mxGeometry x="-60" y="300" width="120" height="60" as="geometry"/>
                </mxCell>
                <mxCell id="v9uSFh_kvwWnCFCGm-_l-24" style="edgeStyle=orthogonalEdgeStyle;rounded=0;orthogonalLoop=1;jettySize=auto;html=1;exitX=0.5;exitY=1;exitDx=0;exitDy=0;entryX=0.5;entryY=0;entryDx=0;entryDy=0;" parent="1" target="v9uSFh_kvwWnCFCGm-_l-20" edge="1">
                    <mxGeometry relative="1" as="geometry">
                        <mxPoint y="500" as="sourcePoint"/>
                    </mxGeometry>
                </mxCell>
                <mxCell id="v9uSFh_kvwWnCFCGm-_l-27" style="edgeStyle=orthogonalEdgeStyle;rounded=0;orthogonalLoop=1;jettySize=auto;html=1;exitX=1;exitY=0.5;exitDx=0;exitDy=0;" parent="1" source="v9uSFh_kvwWnCFCGm-_l-6" edge="1">
                    <mxGeometry relative="1" as="geometry">
                        <mxPoint x="170" y="700" as="targetPoint"/>
                    </mxGeometry>
                </mxCell>
                <mxCell id="8" style="edgeStyle=none;html=1;exitX=0.5;exitY=1;exitDx=0;exitDy=0;entryX=0.5;entryY=0;entryDx=0;entryDy=0;" edge="1" parent="1" source="v9uSFh_kvwWnCFCGm-_l-6" target="6">
                    <mxGeometry relative="1" as="geometry"/>
                </mxCell>
                <mxCell id="v9uSFh_kvwWnCFCGm-_l-6" value="&lt;span style=&quot;font-size: 12px;&quot;&gt;num &amp;gt;= 2 ?&lt;/span&gt;" style="rhombus;whiteSpace=wrap;html=1;" parent="1" vertex="1">
                    <mxGeometry x="-40" y="660" width="80" height="80" as="geometry"/>
                </mxCell>
                <mxCell id="v9uSFh_kvwWnCFCGm-_l-7" value="End" style="ellipse;whiteSpace=wrap;html=1;" parent="1" vertex="1">
                    <mxGeometry x="-60" y="2000" width="120" height="80" as="geometry"/>
                </mxCell>
                <mxCell id="v9uSFh_kvwWnCFCGm-_l-28" style="edgeStyle=orthogonalEdgeStyle;rounded=0;orthogonalLoop=1;jettySize=auto;html=1;exitX=0.5;exitY=1;exitDx=0;exitDy=0;entryX=0.5;entryY=0;entryDx=0;entryDy=0;" parent="1" target="v9uSFh_kvwWnCFCGm-_l-9" edge="1">
                    <mxGeometry relative="1" as="geometry">
                        <mxPoint x="230" y="730" as="sourcePoint"/>
                    </mxGeometry>
                </mxCell>
                <mxCell id="54" style="edgeStyle=none;html=1;exitX=0.5;exitY=1;exitDx=0;exitDy=0;entryX=0.5;entryY=0;entryDx=0;entryDy=0;" edge="1" parent="1" source="v9uSFh_kvwWnCFCGm-_l-9" target="v9uSFh_kvwWnCFCGm-_l-10">
                    <mxGeometry relative="1" as="geometry"/>
                </mxCell>
                <mxCell id="v9uSFh_kvwWnCFCGm-_l-9" value="&lt;span style=&quot;font-size: 12px;&quot;&gt;i = 2&lt;/span&gt;" style="rounded=0;whiteSpace=wrap;html=1;" parent="1" vertex="1">
                    <mxGeometry x="170" y="830" width="120" height="60" as="geometry"/>
                </mxCell>
                <mxCell id="v9uSFh_kvwWnCFCGm-_l-30" style="edgeStyle=orthogonalEdgeStyle;rounded=0;orthogonalLoop=1;jettySize=auto;html=1;exitX=0.5;exitY=1;exitDx=0;exitDy=0;entryX=0.5;entryY=0;entryDx=0;entryDy=0;" parent="1" source="v9uSFh_kvwWnCFCGm-_l-10" target="v9uSFh_kvwWnCFCGm-_l-16" edge="1">
                    <mxGeometry relative="1" as="geometry"/>
                </mxCell>
                <mxCell id="57" style="edgeStyle=none;html=1;exitX=1;exitY=0.5;exitDx=0;exitDy=0;entryX=0.5;entryY=0;entryDx=0;entryDy=0;" edge="1" parent="1" source="v9uSFh_kvwWnCFCGm-_l-10" target="55">
                    <mxGeometry relative="1" as="geometry">
                        <Array as="points">
                            <mxPoint x="440" y="1000"/>
                        </Array>
                    </mxGeometry>
                </mxCell>
                <mxCell id="v9uSFh_kvwWnCFCGm-_l-10" value="i*i &lt;= num ?" style="rhombus;whiteSpace=wrap;html=1;" parent="1" vertex="1">
                    <mxGeometry x="190" y="960" width="80" height="80" as="geometry"/>
                </mxCell>
                <mxCell id="v9uSFh_kvwWnCFCGm-_l-35" style="edgeStyle=orthogonalEdgeStyle;rounded=0;orthogonalLoop=1;jettySize=auto;html=1;exitX=0.5;exitY=1;exitDx=0;exitDy=0;entryX=0.5;entryY=0;entryDx=0;entryDy=0;" parent="1" source="v9uSFh_kvwWnCFCGm-_l-11" target="v9uSFh_kvwWnCFCGm-_l-13" edge="1">
                    <mxGeometry relative="1" as="geometry"/>
                </mxCell>
                <mxCell id="v9uSFh_kvwWnCFCGm-_l-36" style="edgeStyle=orthogonalEdgeStyle;rounded=0;orthogonalLoop=1;jettySize=auto;html=1;exitX=1;exitY=0.5;exitDx=0;exitDy=0;entryX=0.5;entryY=0;entryDx=0;entryDy=0;" parent="1" source="v9uSFh_kvwWnCFCGm-_l-11" target="v9uSFh_kvwWnCFCGm-_l-12" edge="1">
                    <mxGeometry relative="1" as="geometry"/>
                </mxCell>
                <mxCell id="v9uSFh_kvwWnCFCGm-_l-11" value="&lt;span style=&quot;font-size: 12px;&quot;&gt;num % i == 0 ?&lt;/span&gt;" style="rhombus;whiteSpace=wrap;html=1;" parent="1" vertex="1">
                    <mxGeometry x="400" y="1130" width="80" height="80" as="geometry"/>
                </mxCell>
                <mxCell id="32" style="edgeStyle=none;html=1;exitX=0;exitY=0.5;exitDx=0;exitDy=0;entryX=0.5;entryY=0;entryDx=0;entryDy=0;" edge="1" parent="1" source="v9uSFh_kvwWnCFCGm-_l-12" target="20">
                    <mxGeometry relative="1" as="geometry">
                        <Array as="points">
                            <mxPoint x="555" y="1360"/>
                        </Array>
                    </mxGeometry>
                </mxCell>
                <mxCell id="v9uSFh_kvwWnCFCGm-_l-12" value="&lt;div&gt;&lt;span style=&quot;font-size: 12px;&quot;&gt;i++&lt;/span&gt;&lt;/div&gt;" style="rounded=0;whiteSpace=wrap;html=1;" parent="1" vertex="1">
                    <mxGeometry x="590" y="1330" width="120" height="60" as="geometry"/>
                </mxCell>
                <mxCell id="21" style="edgeStyle=none;html=1;exitX=0.5;exitY=1;exitDx=0;exitDy=0;entryX=0;entryY=0.5;entryDx=0;entryDy=0;" edge="1" parent="1" source="v9uSFh_kvwWnCFCGm-_l-13" target="20">
                    <mxGeometry relative="1" as="geometry">
                        <Array as="points">
                            <mxPoint x="440" y="1477"/>
                        </Array>
                    </mxGeometry>
                </mxCell>
                <mxCell id="v9uSFh_kvwWnCFCGm-_l-13" value="&lt;div&gt;&lt;span style=&quot;font-size: 12px;&quot;&gt;isPrime=0&lt;/span&gt;&lt;/div&gt;&lt;div&gt;&lt;span style=&quot;background-color: transparent; color: light-dark(rgb(0, 0, 0), rgb(255, 255, 255));&quot;&gt;break&lt;/span&gt;&lt;/div&gt;" style="rounded=0;whiteSpace=wrap;html=1;align=left;" parent="1" vertex="1">
                    <mxGeometry x="380" y="1330" width="120" height="60" as="geometry"/>
                </mxCell>
                <mxCell id="v9uSFh_kvwWnCFCGm-_l-15" value="&lt;font style=&quot;font-size: 23px;&quot;&gt;For Loop&lt;/font&gt;" style="text;html=1;align=center;verticalAlign=middle;whiteSpace=wrap;rounded=0;" parent="1" vertex="1">
                    <mxGeometry x="-105" y="30" width="210" height="80" as="geometry"/>
                </mxCell>
                <mxCell id="v9uSFh_kvwWnCFCGm-_l-32" style="edgeStyle=orthogonalEdgeStyle;rounded=0;orthogonalLoop=1;jettySize=auto;html=1;exitX=0.5;exitY=1;exitDx=0;exitDy=0;entryX=0.5;entryY=0;entryDx=0;entryDy=0;" parent="1" source="v9uSFh_kvwWnCFCGm-_l-16" edge="1">
                    <mxGeometry relative="1" as="geometry">
                        <mxPoint x="230" y="1650" as="targetPoint"/>
                    </mxGeometry>
                </mxCell>
                <mxCell id="v9uSFh_kvwWnCFCGm-_l-33" style="edgeStyle=orthogonalEdgeStyle;rounded=0;orthogonalLoop=1;jettySize=auto;html=1;exitX=1;exitY=0.5;exitDx=0;exitDy=0;entryX=0.5;entryY=0;entryDx=0;entryDy=0;" parent="1" source="v9uSFh_kvwWnCFCGm-_l-16" target="v9uSFh_kvwWnCFCGm-_l-18" edge="1">
                    <mxGeometry relative="1" as="geometry"/>
                </mxCell>
                <mxCell id="v9uSFh_kvwWnCFCGm-_l-16" value="&lt;span style=&quot;font-size: 12px;&quot;&gt;isPrime == 1 ?&lt;/span&gt;" style="rhombus;whiteSpace=wrap;html=1;" parent="1" vertex="1">
                    <mxGeometry x="190" y="1460" width="80" height="80" as="geometry"/>
                </mxCell>
                <mxCell id="v9uSFh_kvwWnCFCGm-_l-34" style="edgeStyle=orthogonalEdgeStyle;rounded=0;orthogonalLoop=1;jettySize=auto;html=1;exitX=0.5;exitY=1;exitDx=0;exitDy=0;entryX=0.5;entryY=0;entryDx=0;entryDy=0;" parent="1" source="v9uSFh_kvwWnCFCGm-_l-18" target="v9uSFh_kvwWnCFCGm-_l-19" edge="1">
                    <mxGeometry relative="1" as="geometry"/>
                </mxCell>
                <mxCell id="v9uSFh_kvwWnCFCGm-_l-18" value="&lt;span style=&quot;font-size: 12px;&quot;&gt;(ข้าม)&lt;/span&gt;" style="rounded=0;whiteSpace=wrap;html=1;" parent="1" vertex="1">
                    <mxGeometry x="380" y="1650" width="120" height="60" as="geometry"/>
                </mxCell>
                <mxCell id="52" style="edgeStyle=none;html=1;exitX=1;exitY=0.5;exitDx=0;exitDy=0;entryX=1;entryY=0;entryDx=0;entryDy=0;" edge="1" parent="1" source="v9uSFh_kvwWnCFCGm-_l-19" target="v9uSFh_kvwWnCFCGm-_l-20">
                    <mxGeometry relative="1" as="geometry">
                        <Array as="points">
                            <mxPoint x="970" y="1850"/>
                            <mxPoint x="980" y="575"/>
                        </Array>
                    </mxGeometry>
                </mxCell>
                <mxCell id="v9uSFh_kvwWnCFCGm-_l-19" value="&lt;span style=&quot;font-size: 12px;&quot;&gt;num--&lt;/span&gt;" style="rounded=0;whiteSpace=wrap;html=1;" parent="1" vertex="1">
                    <mxGeometry x="380" y="1820" width="120" height="60" as="geometry"/>
                </mxCell>
                <mxCell id="v9uSFh_kvwWnCFCGm-_l-25" style="edgeStyle=orthogonalEdgeStyle;rounded=0;orthogonalLoop=1;jettySize=auto;html=1;exitX=0.5;exitY=1;exitDx=0;exitDy=0;entryX=0.5;entryY=0;entryDx=0;entryDy=0;" parent="1" source="v9uSFh_kvwWnCFCGm-_l-20" target="v9uSFh_kvwWnCFCGm-_l-6" edge="1">
                    <mxGeometry relative="1" as="geometry"/>
                </mxCell>
                <mxCell id="v9uSFh_kvwWnCFCGm-_l-20" value="" style="ellipse;whiteSpace=wrap;html=1;aspect=fixed;" parent="1" vertex="1">
                    <mxGeometry x="-15" y="560" width="30" height="30" as="geometry"/>
                </mxCell>
                <mxCell id="v9uSFh_kvwWnCFCGm-_l-56" style="edgeStyle=orthogonalEdgeStyle;rounded=0;orthogonalLoop=1;jettySize=auto;html=1;exitX=0.5;exitY=1;exitDx=0;exitDy=0;entryX=0.5;entryY=0;entryDx=0;entryDy=0;" parent="1" source="v9uSFh_kvwWnCFCGm-_l-38" target="v9uSFh_kvwWnCFCGm-_l-39" edge="1">
                    <mxGeometry relative="1" as="geometry"/>
                </mxCell>
                <mxCell id="v9uSFh_kvwWnCFCGm-_l-38" value="&lt;span style=&quot;font-size: 12px;&quot;&gt;รับค่า n&lt;/span&gt;" style="rounded=0;whiteSpace=wrap;html=1;" parent="1" vertex="1">
                    <mxGeometry x="1120" y="300" width="120" height="60" as="geometry"/>
                </mxCell>
                <mxCell id="v9uSFh_kvwWnCFCGm-_l-57" style="edgeStyle=orthogonalEdgeStyle;rounded=0;orthogonalLoop=1;jettySize=auto;html=1;exitX=0.5;exitY=1;exitDx=0;exitDy=0;entryX=0.5;entryY=0;entryDx=0;entryDy=0;" parent="1" source="v9uSFh_kvwWnCFCGm-_l-39" target="v9uSFh_kvwWnCFCGm-_l-54" edge="1">
                    <mxGeometry relative="1" as="geometry"/>
                </mxCell>
                <mxCell id="v9uSFh_kvwWnCFCGm-_l-39" value="&lt;span style=&quot;font-size: 12px;&quot;&gt;num = n&lt;/span&gt;" style="rounded=0;whiteSpace=wrap;html=1;" parent="1" vertex="1">
                    <mxGeometry x="1120" y="410" width="120" height="60" as="geometry"/>
                </mxCell>
                <mxCell id="v9uSFh_kvwWnCFCGm-_l-62" style="edgeStyle=orthogonalEdgeStyle;rounded=0;orthogonalLoop=1;jettySize=auto;html=1;exitX=1;exitY=0.5;exitDx=0;exitDy=0;entryX=0;entryY=0.5;entryDx=0;entryDy=0;" parent="1" source="v9uSFh_kvwWnCFCGm-_l-40" target="v9uSFh_kvwWnCFCGm-_l-42" edge="1">
                    <mxGeometry relative="1" as="geometry"/>
                </mxCell>
                <mxCell id="13" style="edgeStyle=none;html=1;exitX=0.5;exitY=1;exitDx=0;exitDy=0;entryX=0.5;entryY=0;entryDx=0;entryDy=0;" edge="1" parent="1" source="v9uSFh_kvwWnCFCGm-_l-40" target="11">
                    <mxGeometry relative="1" as="geometry"/>
                </mxCell>
                <mxCell id="v9uSFh_kvwWnCFCGm-_l-40" value="&lt;span style=&quot;font-size: 12px;&quot;&gt;ตรวจ num &amp;gt;= 2 ?&lt;/span&gt;" style="rhombus;whiteSpace=wrap;html=1;" parent="1" vertex="1">
                    <mxGeometry x="1140" y="682" width="80" height="80" as="geometry"/>
                </mxCell>
                <mxCell id="v9uSFh_kvwWnCFCGm-_l-41" value="end" style="ellipse;whiteSpace=wrap;html=1;" parent="1" vertex="1">
                    <mxGeometry x="1120" y="1970" width="120" height="80" as="geometry"/>
                </mxCell>
                <mxCell id="v9uSFh_kvwWnCFCGm-_l-64" style="edgeStyle=orthogonalEdgeStyle;rounded=0;orthogonalLoop=1;jettySize=auto;html=1;exitX=0.5;exitY=1;exitDx=0;exitDy=0;entryX=0.5;entryY=0;entryDx=0;entryDy=0;" parent="1" source="v9uSFh_kvwWnCFCGm-_l-42" target="v9uSFh_kvwWnCFCGm-_l-43" edge="1">
                    <mxGeometry relative="1" as="geometry"/>
                </mxCell>
                <mxCell id="v9uSFh_kvwWnCFCGm-_l-42" value="&lt;span style=&quot;font-size: 12px;&quot;&gt;isPrime = 1&lt;/span&gt;" style="shape=parallelogram;perimeter=parallelogramPerimeter;whiteSpace=wrap;html=1;fixedSize=1;" parent="1" vertex="1">
                    <mxGeometry x="1330" y="692" width="120" height="60" as="geometry"/>
                </mxCell>
                <mxCell id="41" style="edgeStyle=none;html=1;exitX=0.5;exitY=1;exitDx=0;exitDy=0;entryX=0.5;entryY=0;entryDx=0;entryDy=0;" edge="1" parent="1" source="v9uSFh_kvwWnCFCGm-_l-43" target="40">
                    <mxGeometry relative="1" as="geometry"/>
                </mxCell>
                <mxCell id="v9uSFh_kvwWnCFCGm-_l-43" value="&lt;span style=&quot;font-size: 12px;&quot;&gt;i = 2&lt;/span&gt;" style="rounded=0;whiteSpace=wrap;html=1;" parent="1" vertex="1">
                    <mxGeometry x="1330" y="847" width="120" height="60" as="geometry"/>
                </mxCell>
                <mxCell id="v9uSFh_kvwWnCFCGm-_l-65" style="edgeStyle=orthogonalEdgeStyle;rounded=0;orthogonalLoop=1;jettySize=auto;html=1;exitX=0.5;exitY=1;exitDx=0;exitDy=0;entryX=0.5;entryY=0;entryDx=0;entryDy=0;" parent="1" source="v9uSFh_kvwWnCFCGm-_l-44" target="v9uSFh_kvwWnCFCGm-_l-50" edge="1">
                    <mxGeometry relative="1" as="geometry"/>
                </mxCell>
                <mxCell id="v9uSFh_kvwWnCFCGm-_l-66" style="edgeStyle=orthogonalEdgeStyle;rounded=0;orthogonalLoop=1;jettySize=auto;html=1;exitX=1;exitY=0.5;exitDx=0;exitDy=0;" parent="1" source="v9uSFh_kvwWnCFCGm-_l-44" target="v9uSFh_kvwWnCFCGm-_l-47" edge="1">
                    <mxGeometry relative="1" as="geometry"/>
                </mxCell>
                <mxCell id="v9uSFh_kvwWnCFCGm-_l-44" value="ตรวจ i*i &lt;= num ?" style="rhombus;whiteSpace=wrap;html=1;" parent="1" vertex="1">
                    <mxGeometry x="1350" y="957" width="80" height="80" as="geometry"/>
                </mxCell>
                <mxCell id="v9uSFh_kvwWnCFCGm-_l-67" style="edgeStyle=orthogonalEdgeStyle;rounded=0;orthogonalLoop=1;jettySize=auto;html=1;exitX=0.5;exitY=1;exitDx=0;exitDy=0;entryX=0.5;entryY=0;entryDx=0;entryDy=0;" parent="1" source="v9uSFh_kvwWnCFCGm-_l-47" target="v9uSFh_kvwWnCFCGm-_l-48" edge="1">
                    <mxGeometry relative="1" as="geometry"/>
                </mxCell>
                <mxCell id="v9uSFh_kvwWnCFCGm-_l-68" style="edgeStyle=orthogonalEdgeStyle;rounded=0;orthogonalLoop=1;jettySize=auto;html=1;exitX=1;exitY=0.5;exitDx=0;exitDy=0;entryX=0.5;entryY=0;entryDx=0;entryDy=0;" parent="1" source="v9uSFh_kvwWnCFCGm-_l-47" target="v9uSFh_kvwWnCFCGm-_l-49" edge="1">
                    <mxGeometry relative="1" as="geometry"/>
                </mxCell>
                <mxCell id="v9uSFh_kvwWnCFCGm-_l-47" value="&lt;span style=&quot;font-size: 12px;&quot;&gt;&amp;nbsp;num % i == 0 ?&lt;/span&gt;" style="rhombus;whiteSpace=wrap;html=1;" parent="1" vertex="1">
                    <mxGeometry x="1530" y="1127" width="80" height="80" as="geometry"/>
                </mxCell>
                <mxCell id="36" style="edgeStyle=none;html=1;exitX=0.5;exitY=1;exitDx=0;exitDy=0;entryX=0;entryY=0.5;entryDx=0;entryDy=0;" edge="1" parent="1" source="v9uSFh_kvwWnCFCGm-_l-48" target="34">
                    <mxGeometry relative="1" as="geometry">
                        <Array as="points">
                            <mxPoint x="1570" y="1432"/>
                        </Array>
                    </mxGeometry>
                </mxCell>
                <mxCell id="v9uSFh_kvwWnCFCGm-_l-48" value="&lt;span style=&quot;font-size: 12px;&quot;&gt;i++&lt;/span&gt;" style="rounded=0;whiteSpace=wrap;html=1;" parent="1" vertex="1">
                    <mxGeometry x="1510" y="1307" width="120" height="60" as="geometry"/>
                </mxCell>
                <mxCell id="35" style="edgeStyle=none;html=1;exitX=0.5;exitY=1;exitDx=0;exitDy=0;entryX=0.5;entryY=0;entryDx=0;entryDy=0;" edge="1" parent="1" source="v9uSFh_kvwWnCFCGm-_l-49" target="34">
                    <mxGeometry relative="1" as="geometry"/>
                </mxCell>
                <mxCell id="v9uSFh_kvwWnCFCGm-_l-49" value="&lt;div&gt;&lt;span style=&quot;font-size: 12px;&quot;&gt;isPrime=0&lt;/span&gt;&lt;/div&gt;&lt;div&gt;&lt;span style=&quot;background-color: transparent; color: light-dark(rgb(0, 0, 0), rgb(255, 255, 255));&quot;&gt;break&lt;/span&gt;&lt;/div&gt;" style="rounded=0;whiteSpace=wrap;html=1;" parent="1" vertex="1">
                    <mxGeometry x="1710" y="1307" width="120" height="60" as="geometry"/>
                </mxCell>
                <mxCell id="v9uSFh_kvwWnCFCGm-_l-69" style="edgeStyle=orthogonalEdgeStyle;rounded=0;orthogonalLoop=1;jettySize=auto;html=1;exitX=0.5;exitY=1;exitDx=0;exitDy=0;entryX=0.5;entryY=0;entryDx=0;entryDy=0;" parent="1" source="v9uSFh_kvwWnCFCGm-_l-50" edge="1">
                    <mxGeometry relative="1" as="geometry">
                        <mxPoint x="1390" y="1637" as="targetPoint"/>
                    </mxGeometry>
                </mxCell>
                <mxCell id="51" style="edgeStyle=none;html=1;exitX=1;exitY=0.5;exitDx=0;exitDy=0;entryX=0.5;entryY=0;entryDx=0;entryDy=0;" edge="1" parent="1" source="v9uSFh_kvwWnCFCGm-_l-50" target="v9uSFh_kvwWnCFCGm-_l-52">
                    <mxGeometry relative="1" as="geometry">
                        <Array as="points">
                            <mxPoint x="1590" y="1480"/>
                        </Array>
                    </mxGeometry>
                </mxCell>
                <mxCell id="v9uSFh_kvwWnCFCGm-_l-50" value="&lt;span style=&quot;font-size: 12px;&quot;&gt;isPrime == 1 ?&lt;/span&gt;" style="rhombus;whiteSpace=wrap;html=1;" parent="1" vertex="1">
                    <mxGeometry x="1350" y="1437" width="80" height="80" as="geometry"/>
                </mxCell>
                <mxCell id="53" style="edgeStyle=none;html=1;exitX=1;exitY=0.5;exitDx=0;exitDy=0;entryX=1;entryY=0.5;entryDx=0;entryDy=0;" edge="1" parent="1" source="v9uSFh_kvwWnCFCGm-_l-52" target="v9uSFh_kvwWnCFCGm-_l-54">
                    <mxGeometry relative="1" as="geometry">
                        <Array as="points">
                            <mxPoint x="2060" y="1667"/>
                            <mxPoint x="2060" y="580"/>
                        </Array>
                    </mxGeometry>
                </mxCell>
                <mxCell id="v9uSFh_kvwWnCFCGm-_l-52" value="&lt;span style=&quot;font-size: 12px;&quot;&gt;num--&lt;/span&gt;" style="rounded=0;whiteSpace=wrap;html=1;" parent="1" vertex="1">
                    <mxGeometry x="1530" y="1637" width="120" height="60" as="geometry"/>
                </mxCell>
                <mxCell id="v9uSFh_kvwWnCFCGm-_l-61" style="edgeStyle=orthogonalEdgeStyle;rounded=0;orthogonalLoop=1;jettySize=auto;html=1;exitX=0.5;exitY=1;exitDx=0;exitDy=0;entryX=0.5;entryY=0;entryDx=0;entryDy=0;" parent="1" source="v9uSFh_kvwWnCFCGm-_l-54" target="v9uSFh_kvwWnCFCGm-_l-40" edge="1">
                    <mxGeometry relative="1" as="geometry"/>
                </mxCell>
                <mxCell id="v9uSFh_kvwWnCFCGm-_l-54" value="" style="ellipse;whiteSpace=wrap;html=1;aspect=fixed;" parent="1" vertex="1">
                    <mxGeometry x="1165" y="560" width="30" height="30" as="geometry"/>
                </mxCell>
                <mxCell id="v9uSFh_kvwWnCFCGm-_l-75" value="&lt;font style=&quot;font-size: 27px;&quot;&gt;While&lt;/font&gt;" style="text;html=1;align=center;verticalAlign=middle;whiteSpace=wrap;rounded=0;" parent="1" vertex="1">
                    <mxGeometry x="1150" y="55" width="60" height="30" as="geometry"/>
                </mxCell>
                <mxCell id="v9uSFh_kvwWnCFCGm-_l-87" style="edgeStyle=orthogonalEdgeStyle;rounded=0;orthogonalLoop=1;jettySize=auto;html=1;exitX=0.5;exitY=1;exitDx=0;exitDy=0;entryX=0.5;entryY=0;entryDx=0;entryDy=0;" parent="1" source="v9uSFh_kvwWnCFCGm-_l-77" target="v9uSFh_kvwWnCFCGm-_l-78" edge="1">
                    <mxGeometry relative="1" as="geometry"/>
                </mxCell>
                <mxCell id="v9uSFh_kvwWnCFCGm-_l-77" value="&lt;span style=&quot;font-size: 12px;&quot;&gt;รับค่า n&lt;/span&gt;" style="rounded=0;whiteSpace=wrap;html=1;" parent="1" vertex="1">
                    <mxGeometry x="2390" y="310" width="120" height="60" as="geometry"/>
                </mxCell>
                <mxCell id="v9uSFh_kvwWnCFCGm-_l-88" style="edgeStyle=orthogonalEdgeStyle;rounded=0;orthogonalLoop=1;jettySize=auto;html=1;exitX=0.5;exitY=1;exitDx=0;exitDy=0;entryX=0.5;entryY=0;entryDx=0;entryDy=0;" parent="1" source="v9uSFh_kvwWnCFCGm-_l-78" target="v9uSFh_kvwWnCFCGm-_l-79" edge="1">
                    <mxGeometry relative="1" as="geometry"/>
                </mxCell>
                <mxCell id="v9uSFh_kvwWnCFCGm-_l-78" value="&lt;span style=&quot;font-size: 12px;&quot;&gt;num = n&lt;/span&gt;" style="rounded=0;whiteSpace=wrap;html=1;" parent="1" vertex="1">
                    <mxGeometry x="2390" y="410" width="120" height="60" as="geometry"/>
                </mxCell>
                <mxCell id="v9uSFh_kvwWnCFCGm-_l-89" style="edgeStyle=orthogonalEdgeStyle;rounded=0;orthogonalLoop=1;jettySize=auto;html=1;exitX=0.5;exitY=1;exitDx=0;exitDy=0;entryX=0.5;entryY=0;entryDx=0;entryDy=0;" parent="1" source="v9uSFh_kvwWnCFCGm-_l-79" target="v9uSFh_kvwWnCFCGm-_l-80" edge="1">
                    <mxGeometry relative="1" as="geometry"/>
                </mxCell>
                <mxCell id="v9uSFh_kvwWnCFCGm-_l-79" value="" style="ellipse;whiteSpace=wrap;html=1;aspect=fixed;" parent="1" vertex="1">
                    <mxGeometry x="2435" y="540" width="30" height="30" as="geometry"/>
                </mxCell>
                <mxCell id="v9uSFh_kvwWnCFCGm-_l-91" style="edgeStyle=orthogonalEdgeStyle;rounded=0;orthogonalLoop=1;jettySize=auto;html=1;exitX=0.5;exitY=1;exitDx=0;exitDy=0;entryX=0.5;entryY=0;entryDx=0;entryDy=0;" parent="1" source="v9uSFh_kvwWnCFCGm-_l-80" target="v9uSFh_kvwWnCFCGm-_l-81" edge="1">
                    <mxGeometry relative="1" as="geometry"/>
                </mxCell>
                <mxCell id="v9uSFh_kvwWnCFCGm-_l-80" value="&lt;span style=&quot;font-size: 12px;&quot;&gt;isPrime = 1&amp;nbsp;&amp;nbsp;&lt;/span&gt;" style="shape=parallelogram;perimeter=parallelogramPerimeter;whiteSpace=wrap;html=1;fixedSize=1;" parent="1" vertex="1">
                    <mxGeometry x="2390" y="632" width="120" height="60" as="geometry"/>
                </mxCell>
                <mxCell id="48" style="edgeStyle=none;html=1;exitX=0.5;exitY=1;exitDx=0;exitDy=0;entryX=0.5;entryY=0;entryDx=0;entryDy=0;" edge="1" parent="1" source="v9uSFh_kvwWnCFCGm-_l-81" target="47">
                    <mxGeometry relative="1" as="geometry"/>
                </mxCell>
                <mxCell id="v9uSFh_kvwWnCFCGm-_l-81" value="&lt;span style=&quot;font-size: 12px;&quot;&gt;i = 2&lt;/span&gt;" style="shape=parallelogram;perimeter=parallelogramPerimeter;whiteSpace=wrap;html=1;fixedSize=1;" parent="1" vertex="1">
                    <mxGeometry x="2390" y="730" width="120" height="60" as="geometry"/>
                </mxCell>
                <mxCell id="v9uSFh_kvwWnCFCGm-_l-93" style="edgeStyle=orthogonalEdgeStyle;rounded=0;orthogonalLoop=1;jettySize=auto;html=1;exitX=1;exitY=0.5;exitDx=0;exitDy=0;entryX=0.5;entryY=0;entryDx=0;entryDy=0;" parent="1" source="v9uSFh_kvwWnCFCGm-_l-82" target="v9uSFh_kvwWnCFCGm-_l-84" edge="1">
                    <mxGeometry relative="1" as="geometry"/>
                </mxCell>
                <mxCell id="v9uSFh_kvwWnCFCGm-_l-96" style="edgeStyle=orthogonalEdgeStyle;rounded=0;orthogonalLoop=1;jettySize=auto;html=1;exitX=0.5;exitY=1;exitDx=0;exitDy=0;entryX=0.5;entryY=0;entryDx=0;entryDy=0;" parent="1" source="v9uSFh_kvwWnCFCGm-_l-82" target="v9uSFh_kvwWnCFCGm-_l-95" edge="1">
                    <mxGeometry relative="1" as="geometry"/>
                </mxCell>
                <mxCell id="v9uSFh_kvwWnCFCGm-_l-82" value="&lt;span style=&quot;font-size: 12px;&quot;&gt;ตรวจ i*i &amp;lt;= num ?&amp;nbsp;&lt;/span&gt;" style="rhombus;whiteSpace=wrap;html=1;" parent="1" vertex="1">
                    <mxGeometry x="2410" y="837" width="80" height="80" as="geometry"/>
                </mxCell>
                <mxCell id="v9uSFh_kvwWnCFCGm-_l-102" style="edgeStyle=orthogonalEdgeStyle;rounded=0;orthogonalLoop=1;jettySize=auto;html=1;exitX=0.5;exitY=1;exitDx=0;exitDy=0;entryX=0.5;entryY=0;entryDx=0;entryDy=0;" parent="1" source="v9uSFh_kvwWnCFCGm-_l-83" target="v9uSFh_kvwWnCFCGm-_l-99" edge="1">
                    <mxGeometry relative="1" as="geometry"/>
                </mxCell>
                <mxCell id="v9uSFh_kvwWnCFCGm-_l-103" style="edgeStyle=orthogonalEdgeStyle;rounded=0;orthogonalLoop=1;jettySize=auto;html=1;exitX=1;exitY=0.5;exitDx=0;exitDy=0;entryX=0.5;entryY=0;entryDx=0;entryDy=0;" parent="1" source="v9uSFh_kvwWnCFCGm-_l-83" target="v9uSFh_kvwWnCFCGm-_l-101" edge="1">
                    <mxGeometry relative="1" as="geometry"/>
                </mxCell>
                <mxCell id="v9uSFh_kvwWnCFCGm-_l-83" value="&lt;span style=&quot;font-size: 12px;&quot;&gt;isPrime == 1 ?&amp;nbsp;&lt;/span&gt;" style="rhombus;whiteSpace=wrap;html=1;" parent="1" vertex="1">
                    <mxGeometry x="2410" y="1430" width="80" height="80" as="geometry"/>
                </mxCell>
                <mxCell id="44" style="edgeStyle=none;html=1;exitX=0.5;exitY=1;exitDx=0;exitDy=0;entryX=1;entryY=0.5;entryDx=0;entryDy=0;" edge="1" parent="1" source="v9uSFh_kvwWnCFCGm-_l-84" target="v9uSFh_kvwWnCFCGm-_l-95">
                    <mxGeometry relative="1" as="geometry">
                        <Array as="points">
                            <mxPoint x="2610" y="1327"/>
                        </Array>
                    </mxGeometry>
                </mxCell>
                <mxCell id="45" style="edgeStyle=none;html=1;exitX=1;exitY=0.5;exitDx=0;exitDy=0;entryX=0.5;entryY=0;entryDx=0;entryDy=0;" edge="1" parent="1" source="v9uSFh_kvwWnCFCGm-_l-84" target="v9uSFh_kvwWnCFCGm-_l-85">
                    <mxGeometry relative="1" as="geometry">
                        <Array as="points">
                            <mxPoint x="2730" y="1000"/>
                        </Array>
                    </mxGeometry>
                </mxCell>
                <mxCell id="v9uSFh_kvwWnCFCGm-_l-84" value="&lt;span style=&quot;font-size: 12px;&quot;&gt;num % i == 0 ?&lt;/span&gt;" style="rhombus;whiteSpace=wrap;html=1;" parent="1" vertex="1">
                    <mxGeometry x="2570" y="957" width="80" height="80" as="geometry"/>
                </mxCell>
                <mxCell id="50" style="edgeStyle=none;html=1;exitX=1;exitY=0.5;exitDx=0;exitDy=0;entryX=1;entryY=0;entryDx=0;entryDy=0;" edge="1" parent="1" source="v9uSFh_kvwWnCFCGm-_l-85" target="47">
                    <mxGeometry relative="1" as="geometry">
                        <Array as="points">
                            <mxPoint x="2820" y="1220"/>
                            <mxPoint x="2820" y="1010"/>
                            <mxPoint x="2820" y="804"/>
                        </Array>
                    </mxGeometry>
                </mxCell>
                <mxCell id="v9uSFh_kvwWnCFCGm-_l-85" value="&lt;div&gt;&lt;span style=&quot;font-size: 12px;&quot;&gt;isPrime=0&lt;/span&gt;&lt;/div&gt;&lt;div&gt;&lt;span style=&quot;background-color: transparent; color: light-dark(rgb(0, 0, 0), rgb(255, 255, 255));&quot;&gt;break&lt;/span&gt;&lt;/div&gt;" style="rounded=0;whiteSpace=wrap;html=1;" parent="1" vertex="1">
                    <mxGeometry x="2670" y="1190" width="120" height="60" as="geometry"/>
                </mxCell>
                <mxCell id="v9uSFh_kvwWnCFCGm-_l-97" style="edgeStyle=orthogonalEdgeStyle;rounded=0;orthogonalLoop=1;jettySize=auto;html=1;exitX=0.5;exitY=1;exitDx=0;exitDy=0;entryX=0.5;entryY=0;entryDx=0;entryDy=0;" parent="1" source="v9uSFh_kvwWnCFCGm-_l-95" target="v9uSFh_kvwWnCFCGm-_l-83" edge="1">
                    <mxGeometry relative="1" as="geometry"/>
                </mxCell>
                <mxCell id="v9uSFh_kvwWnCFCGm-_l-95" value="" style="ellipse;whiteSpace=wrap;html=1;aspect=fixed;" parent="1" vertex="1">
                    <mxGeometry x="2430" y="1307" width="40" height="40" as="geometry"/>
                </mxCell>
                <mxCell id="18" style="edgeStyle=none;html=1;exitX=0.5;exitY=1;exitDx=0;exitDy=0;entryX=0;entryY=0.5;entryDx=0;entryDy=0;" edge="1" parent="1" source="v9uSFh_kvwWnCFCGm-_l-99" target="15">
                    <mxGeometry relative="1" as="geometry">
                        <Array as="points">
                            <mxPoint x="2450" y="1835"/>
                        </Array>
                    </mxGeometry>
                </mxCell>
                <mxCell id="v9uSFh_kvwWnCFCGm-_l-99" value="พิมพ์ num" style="shape=parallelogram;perimeter=parallelogramPerimeter;whiteSpace=wrap;html=1;fixedSize=1;" parent="1" vertex="1">
                    <mxGeometry x="2390" y="1570" width="120" height="60" as="geometry"/>
                </mxCell>
                <mxCell id="v9uSFh_kvwWnCFCGm-_l-106" style="edgeStyle=orthogonalEdgeStyle;rounded=0;orthogonalLoop=1;jettySize=auto;html=1;exitX=0.5;exitY=1;exitDx=0;exitDy=0;entryX=0.5;entryY=0;entryDx=0;entryDy=0;" parent="1" source="v9uSFh_kvwWnCFCGm-_l-101" target="v9uSFh_kvwWnCFCGm-_l-104" edge="1">
                    <mxGeometry relative="1" as="geometry"/>
                </mxCell>
                <mxCell id="v9uSFh_kvwWnCFCGm-_l-101" value="&lt;span style=&quot;font-size: 12px;&quot;&gt;num--&amp;nbsp;&lt;/span&gt;" style="rounded=0;whiteSpace=wrap;html=1;" parent="1" vertex="1">
                    <mxGeometry x="2580" y="1570" width="120" height="60" as="geometry"/>
                </mxCell>
                <mxCell id="v9uSFh_kvwWnCFCGm-_l-109" style="edgeStyle=orthogonalEdgeStyle;rounded=0;orthogonalLoop=1;jettySize=auto;html=1;exitX=1;exitY=0.5;exitDx=0;exitDy=0;entryX=1;entryY=0.5;entryDx=0;entryDy=0;" parent="1" source="v9uSFh_kvwWnCFCGm-_l-104" target="v9uSFh_kvwWnCFCGm-_l-79" edge="1">
                    <mxGeometry relative="1" as="geometry">
                        <Array as="points">
                            <mxPoint x="2840" y="1750"/>
                            <mxPoint x="2840" y="555"/>
                        </Array>
                    </mxGeometry>
                </mxCell>
                <mxCell id="16" style="edgeStyle=none;html=1;exitX=0.5;exitY=1;exitDx=0;exitDy=0;entryX=0.5;entryY=0;entryDx=0;entryDy=0;" edge="1" parent="1" source="v9uSFh_kvwWnCFCGm-_l-104" target="15">
                    <mxGeometry relative="1" as="geometry"/>
                </mxCell>
                <mxCell id="v9uSFh_kvwWnCFCGm-_l-104" value="&lt;span style=&quot;font-size: 12px;&quot;&gt;ตรวจ num &amp;gt;= 2 ?&lt;/span&gt;" style="rhombus;whiteSpace=wrap;html=1;" parent="1" vertex="1">
                    <mxGeometry x="2600" y="1710" width="80" height="80" as="geometry"/>
                </mxCell>
                <mxCell id="v9uSFh_kvwWnCFCGm-_l-105" value="จบ" style="ellipse;whiteSpace=wrap;html=1;" parent="1" vertex="1">
                    <mxGeometry x="2580" y="1880" width="120" height="80" as="geometry"/>
                </mxCell>
                <mxCell id="v9uSFh_kvwWnCFCGm-_l-111" value="False" style="text;html=1;align=center;verticalAlign=middle;whiteSpace=wrap;rounded=0;" parent="1" vertex="1">
                    <mxGeometry x="-100" y="762" width="60" height="30" as="geometry"/>
                </mxCell>
                <mxCell id="v9uSFh_kvwWnCFCGm-_l-112" value="true" style="text;html=1;align=center;verticalAlign=middle;whiteSpace=wrap;rounded=0;" parent="1" vertex="1">
                    <mxGeometry x="60" y="632" width="60" height="30" as="geometry"/>
                </mxCell>
                <mxCell id="v9uSFh_kvwWnCFCGm-_l-113" value="False" style="text;html=1;align=center;verticalAlign=middle;whiteSpace=wrap;rounded=0;" parent="1" vertex="1">
                    <mxGeometry x="160" y="1070" width="60" height="30" as="geometry"/>
                </mxCell>
                <mxCell id="v9uSFh_kvwWnCFCGm-_l-114" value="true" style="text;html=1;align=center;verticalAlign=middle;whiteSpace=wrap;rounded=0;" parent="1" vertex="1">
                    <mxGeometry x="310" y="940" width="60" height="30" as="geometry"/>
                </mxCell>
                <mxCell id="v9uSFh_kvwWnCFCGm-_l-115" value="true" style="text;html=1;align=center;verticalAlign=middle;whiteSpace=wrap;rounded=0;" parent="1" vertex="1">
                    <mxGeometry x="370" y="1240" width="60" height="30" as="geometry"/>
                </mxCell>
                <mxCell id="v9uSFh_kvwWnCFCGm-_l-116" value="False" style="text;html=1;align=center;verticalAlign=middle;whiteSpace=wrap;rounded=0;" parent="1" vertex="1">
                    <mxGeometry x="670" y="1205" width="60" height="30" as="geometry"/>
                </mxCell>
                <mxCell id="v9uSFh_kvwWnCFCGm-_l-117" value="true" style="text;html=1;align=center;verticalAlign=middle;whiteSpace=wrap;rounded=0;" parent="1" vertex="1">
                    <mxGeometry x="260" y="1590" width="60" height="30" as="geometry"/>
                </mxCell>
                <mxCell id="v9uSFh_kvwWnCFCGm-_l-118" value="False" style="text;html=1;align=center;verticalAlign=middle;whiteSpace=wrap;rounded=0;" parent="1" vertex="1">
                    <mxGeometry x="300" y="1462" width="60" height="30" as="geometry"/>
                </mxCell>
                <mxCell id="v9uSFh_kvwWnCFCGm-_l-119" value="true" style="text;html=1;align=center;verticalAlign=middle;whiteSpace=wrap;rounded=0;" parent="1" vertex="1">
                    <mxGeometry x="1230" y="640" width="60" height="30" as="geometry"/>
                </mxCell>
                <mxCell id="v9uSFh_kvwWnCFCGm-_l-120" value="False" style="text;html=1;align=center;verticalAlign=middle;whiteSpace=wrap;rounded=0;" parent="1" vertex="1">
                    <mxGeometry x="1130" y="800" width="60" height="30" as="geometry"/>
                </mxCell>
                <mxCell id="v9uSFh_kvwWnCFCGm-_l-121" value="true" style="text;html=1;align=center;verticalAlign=middle;whiteSpace=wrap;rounded=0;" parent="1" vertex="1">
                    <mxGeometry x="1460" y="950" width="60" height="30" as="geometry"/>
                </mxCell>
                <mxCell id="v9uSFh_kvwWnCFCGm-_l-122" value="False" style="text;html=1;align=center;verticalAlign=middle;whiteSpace=wrap;rounded=0;" parent="1" vertex="1">
                    <mxGeometry x="1340" y="1080" width="60" height="30" as="geometry"/>
                </mxCell>
                <mxCell id="v9uSFh_kvwWnCFCGm-_l-123" value="true" style="text;html=1;align=center;verticalAlign=middle;whiteSpace=wrap;rounded=0;" parent="1" vertex="1">
                    <mxGeometry x="1510" y="1220" width="60" height="30" as="geometry"/>
                </mxCell>
                <mxCell id="v9uSFh_kvwWnCFCGm-_l-124" value="False" style="text;html=1;align=center;verticalAlign=middle;whiteSpace=wrap;rounded=0;" parent="1" vertex="1">
                    <mxGeometry x="1690" y="1120" width="60" height="30" as="geometry"/>
                </mxCell>
                <mxCell id="v9uSFh_kvwWnCFCGm-_l-125" value="true" style="text;html=1;align=center;verticalAlign=middle;whiteSpace=wrap;rounded=0;" parent="1" vertex="1">
                    <mxGeometry x="1450" y="1590" width="60" height="30" as="geometry"/>
                </mxCell>
                <mxCell id="v9uSFh_kvwWnCFCGm-_l-126" value="False" style="text;html=1;align=center;verticalAlign=middle;whiteSpace=wrap;rounded=0;" parent="1" vertex="1">
                    <mxGeometry x="2360" y="1020" width="60" height="30" as="geometry"/>
                </mxCell>
                <mxCell id="v9uSFh_kvwWnCFCGm-_l-127" value="true" style="text;html=1;align=center;verticalAlign=middle;whiteSpace=wrap;rounded=0;" parent="1" vertex="1">
                    <mxGeometry x="2720" y="1070" width="60" height="30" as="geometry"/>
                </mxCell>
                <mxCell id="v9uSFh_kvwWnCFCGm-_l-128" value="False" style="text;html=1;align=center;verticalAlign=middle;whiteSpace=wrap;rounded=0;" parent="1" vertex="1">
                    <mxGeometry x="2540" y="1080" width="60" height="30" as="geometry"/>
                </mxCell>
                <mxCell id="v9uSFh_kvwWnCFCGm-_l-129" value="true" style="text;html=1;align=center;verticalAlign=middle;whiteSpace=wrap;rounded=0;" parent="1" vertex="1">
                    <mxGeometry x="2360" y="1517" width="60" height="30" as="geometry"/>
                </mxCell>
                <mxCell id="v9uSFh_kvwWnCFCGm-_l-130" value="False" style="text;html=1;align=center;verticalAlign=middle;whiteSpace=wrap;rounded=0;" parent="1" vertex="1">
                    <mxGeometry x="2530" y="1420" width="60" height="30" as="geometry"/>
                </mxCell>
                <mxCell id="v9uSFh_kvwWnCFCGm-_l-131" value="False" style="text;html=1;align=center;verticalAlign=middle;whiteSpace=wrap;rounded=0;" parent="1" vertex="1">
                    <mxGeometry x="2670" y="1810" width="60" height="30" as="geometry"/>
                </mxCell>
                <mxCell id="v9uSFh_kvwWnCFCGm-_l-132" value="true" style="text;html=1;align=center;verticalAlign=middle;whiteSpace=wrap;rounded=0;" parent="1" vertex="1">
                    <mxGeometry x="2840" y="1710" width="60" height="30" as="geometry"/>
                </mxCell>
                <mxCell id="2" value="&lt;span style=&quot;color: rgb(0, 0, 0);&quot;&gt;n = num&lt;/span&gt;" style="shape=parallelogram;perimeter=parallelogramPerimeter;whiteSpace=wrap;html=1;fixedSize=1;" parent="1" vertex="1">
                    <mxGeometry x="-60" y="440" width="120" height="60" as="geometry"/>
                </mxCell>
                <mxCell id="3" value="&lt;span style=&quot;color: rgb(63, 63, 63);&quot;&gt;isPrime = 1&lt;/span&gt;" style="shape=parallelogram;perimeter=parallelogramPerimeter;whiteSpace=wrap;html=1;fixedSize=1;" parent="1" vertex="1">
                    <mxGeometry x="160" y="670" width="120" height="60" as="geometry"/>
                </mxCell>
                <mxCell id="7" style="edgeStyle=none;html=1;exitX=0.5;exitY=1;exitDx=0;exitDy=0;entryX=1;entryY=0.5;entryDx=0;entryDy=0;" edge="1" parent="1" source="4" target="6">
                    <mxGeometry relative="1" as="geometry">
                        <Array as="points">
                            <mxPoint x="230" y="1800"/>
                        </Array>
                    </mxGeometry>
                </mxCell>
                <mxCell id="4" value="&lt;span style=&quot;color: rgb(63, 63, 63);&quot;&gt;พิมพ์ num&lt;/span&gt;" style="shape=parallelogram;perimeter=parallelogramPerimeter;whiteSpace=wrap;html=1;fixedSize=1;" parent="1" vertex="1">
                    <mxGeometry x="170" y="1650" width="120" height="60" as="geometry"/>
                </mxCell>
                <mxCell id="5" value="&lt;font style=&quot;font-size: 28px;&quot;&gt;Do while&lt;/font&gt;" style="text;html=1;align=center;verticalAlign=middle;whiteSpace=wrap;rounded=0;" parent="1" vertex="1">
                    <mxGeometry x="2395" y="55" width="110" height="30" as="geometry"/>
                </mxCell>
                <mxCell id="9" style="edgeStyle=none;html=1;exitX=0.5;exitY=1;exitDx=0;exitDy=0;entryX=0.5;entryY=0;entryDx=0;entryDy=0;" edge="1" parent="1" source="6" target="v9uSFh_kvwWnCFCGm-_l-7">
                    <mxGeometry relative="1" as="geometry"/>
                </mxCell>
                <mxCell id="6" value="" style="ellipse;whiteSpace=wrap;html=1;aspect=fixed;" vertex="1" parent="1">
                    <mxGeometry x="-20" y="1780" width="40" height="40" as="geometry"/>
                </mxCell>
                <mxCell id="12" style="edgeStyle=none;html=1;exitX=0.5;exitY=1;exitDx=0;exitDy=0;entryX=1;entryY=0.5;entryDx=0;entryDy=0;" edge="1" parent="1" source="10" target="11">
                    <mxGeometry relative="1" as="geometry">
                        <Array as="points">
                            <mxPoint x="1400" y="1740"/>
                        </Array>
                    </mxGeometry>
                </mxCell>
                <mxCell id="10" value="&lt;span style=&quot;color: rgb(63, 63, 63);&quot;&gt;พิมพ์ num&lt;/span&gt;" style="shape=parallelogram;perimeter=parallelogramPerimeter;whiteSpace=wrap;html=1;fixedSize=1;" vertex="1" parent="1">
                    <mxGeometry x="1340" y="1637" width="120" height="60" as="geometry"/>
                </mxCell>
                <mxCell id="14" style="edgeStyle=none;html=1;exitX=0.5;exitY=1;exitDx=0;exitDy=0;entryX=0.5;entryY=0;entryDx=0;entryDy=0;" edge="1" parent="1" source="11" target="v9uSFh_kvwWnCFCGm-_l-41">
                    <mxGeometry relative="1" as="geometry"/>
                </mxCell>
                <mxCell id="11" value="" style="ellipse;whiteSpace=wrap;html=1;aspect=fixed;" vertex="1" parent="1">
                    <mxGeometry x="1160" y="1720" width="40" height="40" as="geometry"/>
                </mxCell>
                <mxCell id="17" style="edgeStyle=none;html=1;exitX=0.5;exitY=1;exitDx=0;exitDy=0;entryX=0.5;entryY=0;entryDx=0;entryDy=0;" edge="1" parent="1" source="15" target="v9uSFh_kvwWnCFCGm-_l-105">
                    <mxGeometry relative="1" as="geometry"/>
                </mxCell>
                <mxCell id="15" value="" style="ellipse;whiteSpace=wrap;html=1;aspect=fixed;" vertex="1" parent="1">
                    <mxGeometry x="2625" y="1820" width="30" height="30" as="geometry"/>
                </mxCell>
                <mxCell id="33" style="edgeStyle=none;html=1;exitX=1;exitY=0.5;exitDx=0;exitDy=0;entryX=0;entryY=0.5;entryDx=0;entryDy=0;" edge="1" parent="1" source="20" target="24">
                    <mxGeometry relative="1" as="geometry"/>
                </mxCell>
                <mxCell id="20" value="" style="ellipse;whiteSpace=wrap;html=1;aspect=fixed;" vertex="1" parent="1">
                    <mxGeometry x="540" y="1462" width="30" height="30" as="geometry"/>
                </mxCell>
                <mxCell id="56" style="edgeStyle=none;html=1;exitX=0.5;exitY=0;exitDx=0;exitDy=0;entryX=1;entryY=0.5;entryDx=0;entryDy=0;" edge="1" parent="1" source="24" target="55">
                    <mxGeometry relative="1" as="geometry">
                        <Array as="points">
                            <mxPoint x="845" y="1070"/>
                        </Array>
                    </mxGeometry>
                </mxCell>
                <mxCell id="24" value="" style="ellipse;whiteSpace=wrap;html=1;aspect=fixed;" vertex="1" parent="1">
                    <mxGeometry x="830" y="1462" width="30" height="30" as="geometry"/>
                </mxCell>
                <mxCell id="38" style="edgeStyle=none;html=1;exitX=1;exitY=0.5;exitDx=0;exitDy=0;" edge="1" parent="1" source="34" target="37">
                    <mxGeometry relative="1" as="geometry"/>
                </mxCell>
                <mxCell id="34" value="" style="ellipse;whiteSpace=wrap;html=1;aspect=fixed;" vertex="1" parent="1">
                    <mxGeometry x="1751.5" y="1413" width="37" height="37" as="geometry"/>
                </mxCell>
                <mxCell id="43" style="edgeStyle=none;html=1;exitX=0.5;exitY=0;exitDx=0;exitDy=0;entryX=1;entryY=0.5;entryDx=0;entryDy=0;" edge="1" parent="1" source="37" target="40">
                    <mxGeometry relative="1" as="geometry">
                        <Array as="points">
                            <mxPoint x="1920" y="937"/>
                        </Array>
                    </mxGeometry>
                </mxCell>
                <mxCell id="37" value="" style="ellipse;whiteSpace=wrap;html=1;aspect=fixed;" vertex="1" parent="1">
                    <mxGeometry x="1900" y="1413" width="40" height="40" as="geometry"/>
                </mxCell>
                <mxCell id="42" style="edgeStyle=none;html=1;exitX=0.5;exitY=1;exitDx=0;exitDy=0;entryX=0.5;entryY=0;entryDx=0;entryDy=0;" edge="1" parent="1" source="40" target="v9uSFh_kvwWnCFCGm-_l-44">
                    <mxGeometry relative="1" as="geometry"/>
                </mxCell>
                <mxCell id="40" value="" style="ellipse;whiteSpace=wrap;html=1;aspect=fixed;" vertex="1" parent="1">
                    <mxGeometry x="1380" y="927" width="20" height="20" as="geometry"/>
                </mxCell>
                <mxCell id="49" style="edgeStyle=none;html=1;exitX=0.5;exitY=1;exitDx=0;exitDy=0;entryX=0.5;entryY=0;entryDx=0;entryDy=0;" edge="1" parent="1" source="47" target="v9uSFh_kvwWnCFCGm-_l-82">
                    <mxGeometry relative="1" as="geometry"/>
                </mxCell>
                <mxCell id="47" value="" style="ellipse;whiteSpace=wrap;html=1;aspect=fixed;" vertex="1" parent="1">
                    <mxGeometry x="2435" y="800" width="30" height="30" as="geometry"/>
                </mxCell>
                <mxCell id="58" style="edgeStyle=none;html=1;exitX=0.5;exitY=1;exitDx=0;exitDy=0;entryX=0.5;entryY=0;entryDx=0;entryDy=0;" edge="1" parent="1" source="55" target="v9uSFh_kvwWnCFCGm-_l-11">
                    <mxGeometry relative="1" as="geometry"/>
                </mxCell>
                <mxCell id="55" value="" style="ellipse;whiteSpace=wrap;html=1;aspect=fixed;" vertex="1" parent="1">
                    <mxGeometry x="420" y="1050" width="40" height="40" as="geometry"/>
                </mxCell>
            </root>
        </mxGraphModel>
    </diagram>
</mxfile>